<?xml version="1.0" encoding="UTF-8"?>
<svg version="1.1" xmlns="http://www.w3.org/2000/svg" width="196" height="190">
<path d="M0 0 C64.68 0 129.36 0 196 0 C196 62.7 196 125.4 196 190 C131.32 190 66.64 190 0 190 C0 127.3 0 64.6 0 0 Z " fill="#171718" transform="translate(0,0)"/>
<path d="M0 0 C5.66643197 4.26047516 9.73423664 8.97580354 13.09765625 15.203125 C13.60619141 16.08677734 13.60619141 16.08677734 14.125 16.98828125 C18.22181621 25.57837975 17.17445195 37.2439768 14.22265625 46.015625 C10.11585859 55.42264871 2.54527297 63.92005402 -6.9465332 68.10424805 C-12.52057387 70.16818754 -17.61756206 70.66391215 -23.52734375 70.578125 C-24.33429688 70.58972656 -25.14125 70.60132813 -25.97265625 70.61328125 C-35.47414881 70.56700775 -41.97919293 66.53150341 -48.90234375 60.203125 C-56.7357158 51.95455655 -61.02820343 44.29786415 -61.40234375 32.828125 C-60.97613814 20.00321083 -57.14573458 12.00932842 -47.90234375 3.203125 C-47.24234375 2.55859375 -46.58234375 1.9140625 -45.90234375 1.25 C-42.64126577 -1.75806331 -41.47362783 -2.796875 -36.90234375 -2.796875 C-36.90234375 -3.456875 -36.90234375 -4.116875 -36.90234375 -4.796875 C-23.5391584 -8.3019728 -12.03835539 -7.45308678 0 0 Z " fill="#D3F508" transform="translate(117.90234375,60.796875)"/>
<path d="M0 0 C4.29076446 0.40864423 7.05973263 1.61177281 10.82421875 3.59765625 C13.37268434 4.53507705 14.42369786 4.30942342 16.9375 3.375 C18.01 2.859375 19.0825 2.34375 20.1875 1.8125 C24.28470939 0.01997089 27.48987147 -0.06976285 31.9375 0.375 C34 1.375 34 1.375 34.9375 3.375 C34.85937084 8.06274961 34.27462079 11.1444284 31.8125 15.125 C29.69509364 18.03574183 29.69509364 18.03574183 30.1875 20.3046875 C30.99985582 22.54712805 31.99308374 24.61864592 33.0625 26.75 C34.83810217 30.66923825 35.4721385 33.18032143 33.9375 37.375 C30.15271407 39.89819062 28.48182448 39.44216765 24.1484375 38.8671875 C21.35208027 38.24467688 19.33611268 36.90744699 16.9375 35.375 C13.28969233 34.68487422 11.21119311 35.67021625 8.0625 37.375 C4.22457826 39.41753032 1.33328587 39.99041002 -3.0625 39.375 C-5.53193011 35.67085484 -5.75129165 32.67400996 -5.0625 28.375 C-4.12890625 26.47265625 -4.12890625 26.47265625 -3 24.6875 C-0.83121359 21.6456339 -0.83121359 21.6456339 -1.125 18.8125 C-2.04361364 16.25499896 -2.04361364 16.25499896 -3.625 13.5625 C-5.48729767 9.43305735 -5.43740783 6.87389398 -5.0625 2.375 C-3.0625 0.375 -3.0625 0.375 0 0 Z " fill="#4F5C13" transform="translate(82.0625,72.625)"/>
<path d="M0 0 C2.23828125 1.7421875 2.23828125 1.7421875 4.3125 3.875 C5.00988281 4.57367188 5.70726563 5.27234375 6.42578125 5.9921875 C8 8 8 8 8 11 C6.3203125 12.75390625 6.3203125 12.75390625 4.125 14.5625 C3.40570313 15.16191406 2.68640625 15.76132813 1.9453125 16.37890625 C1.30335937 16.91386719 0.66140625 17.44882813 0 18 C-0.66 18.66 -1.32 19.32 -2 20 C-5.7501157 19.72367568 -7.7118731 17.75009214 -10.3125 15.1875 C-11.03050781 14.50042969 -11.74851562 13.81335938 -12.48828125 13.10546875 C-14 11 -14 11 -13.9140625 8.96875 C-12.88085409 6.74337804 -11.69024061 5.14719051 -10.0625 3.3125 C-9.53785156 2.71050781 -9.01320313 2.10851562 -8.47265625 1.48828125 C-5.59081479 -1.42413678 -3.79165462 -1.15373833 0 0 Z " fill="#D2F30B" transform="translate(100,83)"/>
<path d="M0 0 C0.66 0 1.32 0 2 0 C2.625 2.3125 2.625 2.3125 3 5 C2.01 6.485 2.01 6.485 1 8 C4.3 7.67 7.6 7.34 11 7 C11 7.66 11 8.32 11 9 C11.66 9 12.32 9 13 9 C13 10.32 13 11.64 13 13 C13.66 13 14.32 13 15 13 C15 12.34 15 11.68 15 11 C15.99 11 16.98 11 18 11 C18 11.66 18 12.32 18 13 C20.97 13.495 20.97 13.495 24 14 C23.34 16.97 22.68 19.94 22 23 C19.625 23.125 19.625 23.125 17 23 C16.34 22.34 15.68 21.68 15 21 C14.01 21 13.02 21 12 21 C12 19.68 12 18.36 12 17 C10.68 17.33 9.36 17.66 8 18 C8.33 17.01 8.66 16.02 9 15 C9.66 15 10.32 15 11 15 C10.67 13.68 10.34 12.36 10 11 C9.4225 11.680625 8.845 12.36125 8.25 13.0625 C6 15 6 15 3.875 14.875 C2 14 2 14 0 12 C0 11.01 0 10.02 0 9 C-0.99 9 -1.98 9 -3 9 C-2.690625 8.443125 -2.38125 7.88625 -2.0625 7.3125 C-0.94238179 4.87459567 -0.43962636 2.63775814 0 0 Z " fill="#646669" transform="translate(55,134)"/>
<path d="M0 0 C1.32 0.33 2.64 0.66 4 1 C4.33 2.32 4.66 3.64 5 5 C4.01 5.33 3.02 5.66 2 6 C2.33 7.65 2.66 9.3 3 11 C0.625 12.0625 0.625 12.0625 -2 13 C-2.66 12.67 -3.32 12.34 -4 12 C-4 13.32 -4 14.64 -4 16 C-4.66 16 -5.32 16 -6 16 C-6 16.66 -6 17.32 -6 18 C-8.75 18.75 -8.75 18.75 -12 19 C-14.4375 17.3125 -14.4375 17.3125 -16 15 C-15.9375 12.8125 -15.9375 12.8125 -15 11 C-14.01 10.67 -13.02 10.34 -12 10 C-12 10.66 -12 11.32 -12 12 C-11.01 12 -10.02 12 -9 12 C-9.33 10.35 -9.66 8.7 -10 7 C-9.01 7 -8.02 7 -7 7 C-7 6.01 -7 5.02 -7 4 C-5.68 4.33 -4.36 4.66 -3 5 C-2.01 3.35 -1.02 1.7 0 0 Z " fill="#37393D" transform="translate(66,35)"/>
<path d="M0 0 C1.9375 0.8125 1.9375 0.8125 4 2 C4.33 2.99 4.66 3.98 5 5 C5.66 5 6.32 5 7 5 C7 5.66 7 6.32 7 7 C5.02 7 3.04 7 1 7 C1.33 8.98 1.66 10.96 2 13 C0.68 12.34 -0.64 11.68 -2 11 C-1.938125 11.763125 -1.87625 12.52625 -1.8125 13.3125 C-2 16 -2 16 -3.1875 17.875 C-5 19 -5 19 -7.6875 18.6875 C-8.450625 18.460625 -9.21375 18.23375 -10 18 C-11.34261242 11.53104925 -11.34261242 11.53104925 -9.75 9.0625 C-8 8 -8 8 -5 8 C-5 7.34 -5 6.68 -5 6 C-4.34 6 -3.68 6 -3 6 C-3 5.01 -3 4.02 -3 3 C-2.01 3 -1.02 3 0 3 C0 2.01 0 1.02 0 0 Z " fill="#737375" transform="translate(139,131)"/>
<path d="M0 0 C2.28783297 0.91513319 3.73449728 1.65484646 5.25 3.625 C6.37145262 7.17626663 6.18294561 10.28010587 6 14 C5 15 5 15 2.4375 15.3125 C-2.01076036 14.90811269 -5.16209062 13.18195863 -9 11 C-7.26534882 7.22552753 -5.01646317 4.86564001 -2 2 C-1.34 1.34 -0.68 0.68 0 0 Z " fill="#CDEC14" transform="translate(108,95)"/>
<path d="M0 0 C1 1 1 1 1.3125 4.6875 C1.27290488 9.0825581 -0.13171265 11.62554429 -3 15 C-3.66 15 -4.32 15 -5 15 C-6.24588984 13.52460414 -7.48812639 12.04550456 -8.69140625 10.53515625 C-10.25981645 8.6952004 -11.99275368 7.33816421 -14 6 C-13 3 -13 3 -11.328125 2.05078125 C-4.14225941 -0.50209205 -4.14225941 -0.50209205 0 0 Z " fill="#CAE717" transform="translate(113,75)"/>
<path d="M0 0 C3.54433654 1.41773462 4.33806119 2.67612238 6 6 C7.32520503 6.68268138 8.65812182 7.3507041 10 8 C10.33 8.99 10.66 9.98 11 11 C5.63560356 13.68219822 1.98993047 14.3152595 -4 14 C-4.43177893 7.73920552 -3.92739438 4.90924297 0 0 Z " fill="#C3DA2B" transform="translate(83,95)"/>
<path d="M0 0 C4.44826036 0.40438731 7.59959062 2.13054137 11.4375 4.3125 C10.07496417 7.43074121 8.58641747 9.35987351 6 11.5625 C5.40316406 12.08328125 4.80632812 12.6040625 4.19140625 13.140625 C2.4375 14.3125 2.4375 14.3125 -0.5625 14.3125 C-3.21923037 9.77391895 -3.97449125 6.5653884 -3.5625 1.3125 C-2.5625 0.3125 -2.5625 0.3125 0 0 Z " fill="#CDEB15" transform="translate(82.5625,74.6875)"/>
<path d="M0 0 C1.5912689 4.873261 2.21192221 8.80790596 2 14 C-0.97 14.66 -3.94 15.32 -7 16 C-6.67 15.01 -6.34 14.02 -6 13 C-6.66 12.67 -7.32 12.34 -8 12 C-9.1577506 8.52674819 -9.06866652 5.63932552 -9 2 C-5.62902617 0.50178941 -3.79557881 0 0 0 Z " fill="#2C2E32" transform="translate(160,72)"/>
<path d="M0 0 C2.97 0 5.94 0 9 0 C9.33 0.99 9.66 1.98 10 3 C8.68 3.33 7.36 3.66 6 4 C6.49756092 6.75641416 6.49756092 6.75641416 8 9 C8.1875 11.4375 8.1875 11.4375 8 14 C6 16 6 16 3.5 16.25 C1 16 1 16 -1 14 C-1.24243031 9.15139376 -0.95498418 4.7749209 0 0 Z " fill="#929495" transform="translate(153,98)"/>
<path d="M0 0 C0.66 0 1.32 0 2 0 C5 5.625 5 5.625 5 9 C3.865625 9.28875 2.73125 9.5775 1.5625 9.875 C0.386875 10.24625 -0.78875 10.6175 -2 11 C-2.33 11.66 -2.66 12.32 -3 13 C-6.0625 13.625 -6.0625 13.625 -9 14 C-9 13.01 -9 12.02 -9 11 C-8.01 11 -7.02 11 -6 11 C-6 10.34 -6 9.68 -6 9 C-6.99 9 -7.98 9 -9 9 C-9 8.34 -9 7.68 -9 7 C-8.34 7 -7.68 7 -7 7 C-7 6.34 -7 5.68 -7 5 C-8.32 4.67 -9.64 4.34 -11 4 C-10 3 -10 3 -7.4375 2.9375 C-6.2309375 2.9684375 -6.2309375 2.9684375 -5 3 C-5 2.34 -5 1.68 -5 1 C-3.68 1.33 -2.36 1.66 -1 2 C-0.67 1.34 -0.34 0.68 0 0 Z " fill="#313234" transform="translate(124,145)"/>
<path d="M0 0 C2.375 0.3125 2.375 0.3125 5 1 C5.66 1.99 6.32 2.98 7 4 C7.99 4.33 8.98 4.66 10 5 C11.1875 7.0625 11.1875 7.0625 12 9 C10.68 8.67 9.36 8.34 8 8 C8.33 9.32 8.66 10.64 9 12 C8.01 12 7.02 12 6 12 C6.33 12.99 6.66 13.98 7 15 C4.525 14.01 4.525 14.01 2 13 C2 12.34 2 11.68 2 11 C1.01 10.67 0.02 10.34 -1 10 C-1 9.01 -1 8.02 -1 7 C-1.66 7 -2.32 7 -3 7 C-2.38722388 4.03824877 -1.74627478 2.61941217 0 0 Z " fill="#3C3D41" transform="translate(133,41)"/>
<path d="M0 0 C4.455 0.99 4.455 0.99 9 2 C9 3.98 9 5.96 9 8 C7.02 8.33 5.04 8.66 3 9 C3 9.66 3 10.32 3 11 C3.66 11 4.32 11 5 11 C5 12.32 5 13.64 5 15 C4.01 15.33 3.02 15.66 2 16 C2 14.68 2 13.36 2 12 C1.01 12.33 0.02 12.66 -1 13 C-1 12.01 -1 11.02 -1 10 C-1.66 10 -2.32 10 -3 10 C-3 10.66 -3 11.32 -3 12 C-3.66 12 -4.32 12 -5 12 C-4.47731534 9.23723823 -3.89130413 6.6739124 -3 4 C-1.35 4 0.3 4 2 4 C2 3.34 2 2.68 2 2 C1.34 2 0.68 2 0 2 C0 1.34 0 0.68 0 0 Z " fill="#333437" transform="translate(150,114)"/>
<path d="M0 0 C2.8125 0.625 2.8125 0.625 4.5625 2.25 C7.20701811 7.2745844 8.46478827 11.0326397 6.8125 16.625 C3.03354985 19.1443001 1.36863545 18.69582481 -2.95703125 18.1171875 C-5.7816002 17.49390258 -7.87386815 16.34156556 -10.1875 14.625 C-9.5275 13.965 -8.8675 13.305 -8.1875 12.625 C-7.32125 13.12 -6.455 13.615 -5.5625 14.125 C-2.08000377 15.6727761 0.06009458 15.89302896 3.8125 15.625 C4.08679625 10.23050707 4.17305646 7.10574195 0.8125 2.625 C-2.88168201 3.856394 -4.53859746 5.83291354 -7.1875 8.625 C-7.8475 7.965 -8.5075 7.305 -9.1875 6.625 C-4.09282544 0.80251479 -4.09282544 0.80251479 0 0 Z " fill="#5B6814" transform="translate(109.1875,93.375)"/>
<path d="M0 0 C0.99 0 1.98 0 3 0 C3 0.66 3 1.32 3 2 C5.97 2.495 5.97 2.495 9 3 C8.34 5.97 7.68 8.94 7 12 C4.625 12.125 4.625 12.125 2 12 C1.34 11.34 0.68 10.68 0 10 C-0.99 10 -1.98 10 -3 10 C-2.40138258 7.64828869 -1.73075648 5.3140622 -1 3 C-0.34 2.67 0.32 2.34 1 2 C0.67 1.34 0.34 0.68 0 0 Z " fill="#292A2C" transform="translate(70,145)"/>
<path d="M0 0 C1 2 1 2 0.125 5 C-1 8 -1 8 -2 10 C-2.08449628 11.7404417 -2.10723024 13.48409722 -2.09765625 15.2265625 C-2.09443359 16.2578125 -2.09121094 17.2890625 -2.08789062 18.3515625 C-2.07951172 19.43179688 -2.07113281 20.51203125 -2.0625 21.625 C-2.05798828 22.71296875 -2.05347656 23.8009375 -2.04882812 24.921875 C-2.03701776 27.61463789 -2.02054778 30.30729188 -2 33 C-1.01 33 -0.02 33 1 33 C1 34.65 1 36.3 1 38 C1.66 38 2.32 38 3 38 C2.67 39.32 2.34 40.64 2 42 C1.20010196 40.79709989 0.41052176 39.58733705 -0.375 38.375 C-0.81585938 37.70210937 -1.25671875 37.02921875 -1.7109375 36.3359375 C-6.26076091 28.09110599 -6.29431007 18.41150456 -4.13671875 9.390625 C-1.56127451 1.56127451 -1.56127451 1.56127451 0 0 Z " fill="#A5BF22" transform="translate(62,73)"/>
<path d="M0 0 C3.0625 0.1875 3.0625 0.1875 5.0625 2.1875 C5.3125 4.6875 5.3125 4.6875 5.0625 7.1875 C3.0625 9.1875 3.0625 9.1875 0.0625 9.4375 C-2.9375 9.1875 -2.9375 9.1875 -4.9375 7.1875 C-4.23164336 0.2701049 -4.23164336 0.2701049 0 0 Z " fill="#87898B" transform="translate(34.9375,86.8125)"/>
<path d="M0 0 C0.99 0.33 1.98 0.66 3 1 C3 2.65 3 4.3 3 6 C3.66 6.33 4.32 6.66 5 7 C4.34 7 3.68 7 3 7 C3 7.66 3 8.32 3 9 C0.25 9.75 0.25 9.75 -3 10 C-5.4375 8.3125 -5.4375 8.3125 -7 6 C-6.9375 3.8125 -6.9375 3.8125 -6 2 C-5.01 1.67 -4.02 1.34 -3 1 C-3 1.66 -3 2.32 -3 3 C-2.01 3 -1.02 3 0 3 C0 2.01 0 1.02 0 0 Z " fill="#2A2C30" transform="translate(57,44)"/>
<path d="M0 0 C3.0625 0.1875 3.0625 0.1875 5.0625 2.1875 C4.49431818 7.75568182 4.49431818 7.75568182 3.0625 9.1875 C0.0625 9.3125 0.0625 9.3125 -2.9375 9.1875 C-3.9375 8.1875 -3.9375 8.1875 -4.0625 4.6875 C-3.90398896 0.24919078 -3.90398896 0.24919078 0 0 Z " fill="#818386" transform="translate(83.9375,29.8125)"/>
<path d="M0 0 C2.5 0.25 2.5 0.25 4.5 2.25 C4.8125 4.75 4.8125 4.75 4.5 7.25 C1.5 9.25 1.5 9.25 -1.125 8.9375 C-3.5 8.25 -3.5 8.25 -4.5 7.25 C-4.6875 4.8125 -4.6875 4.8125 -4.5 2.25 C-2.5 0.25 -2.5 0.25 0 0 Z " fill="#8F9192" transform="translate(48.5,127.75)"/>
<path d="M0 0 C2.5 0.25 2.5 0.25 4.5 2.25 C3.93181818 7.81818182 3.93181818 7.81818182 2.5 9.25 C0.0625 9.4375 0.0625 9.4375 -2.5 9.25 C-4.5 7.25 -4.5 7.25 -4.75 4.75 C-4.40058445 1.25584452 -3.49415548 0.34941555 0 0 Z " fill="#909293" transform="translate(126.5,35.75)"/>
<path d="M0 0 C1.56416025 3.33687519 0.8126835 6.55761156 -0.0625 10 C-1.625 13.5 -1.625 13.5 -3.0625 16 C-3.7225 15.67 -4.3825 15.34 -5.0625 15 C-4.7325 14.34 -4.4025 13.68 -4.0625 13 C-2.77562989 9.13938967 -2.92492382 6.05849717 -3.0625 2 C-4.11050781 2.14308594 -4.11050781 2.14308594 -5.1796875 2.2890625 C-6.08976562 2.39992188 -6.99984375 2.51078125 -7.9375 2.625 C-9.29488281 2.79902344 -9.29488281 2.79902344 -10.6796875 2.9765625 C-11.46601562 2.98429687 -12.25234375 2.99203125 -13.0625 3 C-13.7225 2.34 -14.3825 1.68 -15.0625 1 C-10.33167826 -1.36541087 -4.94141087 -2.39583557 0 0 Z " fill="#556212" transform="translate(116.0625,74)"/>
<path d="M0 0 C0.92232422 0.24363281 0.92232422 0.24363281 1.86328125 0.4921875 C6.31052137 1.21216411 10.69026937 1.14426009 15.1875 1.125 C16.10208984 1.12886719 17.01667969 1.13273438 17.95898438 1.13671875 C19.26899414 1.13478516 19.26899414 1.13478516 20.60546875 1.1328125 C21.40106201 1.13168457 22.19665527 1.13055664 23.01635742 1.12939453 C25.07555521 1.1239077 25.07555521 1.1239077 27 0 C29.6723621 -0.13415472 32.32250488 -0.04318541 35 0 C33.67661368 0.68620031 32.34050052 1.34786461 31 2 C30.32066406 2.34675781 29.64132813 2.69351563 28.94140625 3.05078125 C24.81206051 4.38335896 20.93718369 4.32918802 16.625 4.3125 C15.3875 4.33666992 15.3875 4.33666992 14.125 4.36132812 C8.6549806 4.36566941 4.87640058 3.49077604 0 1 C0 0.67 0 0.34 0 0 Z " fill="#B3C91E" transform="translate(78,127)"/>
<path d="M0 0 C0.66 0 1.32 0 2 0 C2.66 1.65 3.32 3.3 4 5 C4.680625 4.2575 4.680625 4.2575 5.375 3.5 C7 2 7 2 9 2 C8.34 4.97 7.68 7.94 7 11 C6.34 11 5.68 11 5 11 C5 10.34 5 9.68 5 9 C2.69 8.67 0.38 8.34 -2 8 C-1.125 1.125 -1.125 1.125 0 0 Z " fill="#838587" transform="translate(113,31)"/>
<path d="M0 0 C2.375 -0.125 2.375 -0.125 5 0 C7 2 7 2 7.1953125 3.9453125 C7.13020833 5.96354167 7.06510417 7.98177083 7 10 C5.00045254 10.04254356 2.99958364 10.04080783 1 10 C0 9 0 9 -0.09765625 6.93359375 C-0.08605469 6.10988281 -0.07445313 5.28617188 -0.0625 4.4375 C-0.05347656 3.61121094 -0.04445313 2.78492188 -0.03515625 1.93359375 C-0.02355469 1.29550781 -0.01195313 0.65742188 0 0 Z " fill="#767978" transform="translate(90,28)"/>
<path d="M0 0 C1.32 0.33 2.64 0.66 4 1 C3.01 1.66 2.02 2.32 1 3 C2.10495875 6.31487625 2.90435968 6.96283765 5.5625 9.0625 C7.50390625 10.59765625 7.50390625 10.59765625 9 12 C9 12.66 9 13.32 9 14 C10.32 13.67 11.64 13.34 13 13 C12.67 14.65 12.34 16.3 12 18 C11.01 18 10.02 18 9 18 C8.5875 17.29875 8.175 16.5975 7.75 15.875 C5.73628583 12.56675529 3.44264788 10.69930341 0.42578125 8.33203125 C-0.04472656 7.89246094 -0.51523438 7.45289062 -1 7 C-1 6.34 -1 5.68 -1 5 C-1.99 5 -2.98 5 -4 5 C-4 4.34 -4 3.68 -4 3 C-3.01 3 -2.02 3 -1 3 C-0.67 2.01 -0.34 1.02 0 0 Z " fill="#45500F" transform="translate(99,76)"/>
<path d="M0 0 C0.33 1.98 0.66 3.96 1 6 C0.01 6.495 0.01 6.495 -1 7 C-0.34 7.33 0.32 7.66 1 8 C1 8.66 1 9.32 1 10 C-1.64 10 -4.28 10 -7 10 C-7 8 -7 8 -5.5 6.375 C-5.005 5.92125 -4.51 5.4675 -4 5 C-5.32 4.34 -6.64 3.68 -8 3 C-8 2.34 -8 1.68 -8 1 C-5.07175348 0.02391783 -3.04386724 -0.08226668 0 0 Z " fill="#87898A" transform="translate(39,97)"/>
<path d="M0 0 C3.68754757 0.49831724 5.60490662 1.10067643 8 4 C7.34 5.32 6.68 6.64 6 8 C3.36 8 0.72 8 -2 8 C-2 6.35 -2 4.7 -2 3 C-1.34 3 -0.68 3 0 3 C0 2.01 0 1.02 0 0 Z " fill="#D4F705" transform="translate(83,99)"/>
<path d="M0 0 C0.33 0.66 0.66 1.32 1 2 C-1.97 1.505 -1.97 1.505 -5 1 C-5.268125 1.763125 -5.53625 2.52625 -5.8125 3.3125 C-7 6 -7 6 -8.625 7.5 C-10.27980035 8.99266652 -10.27980035 8.99266652 -10.1875 11.6875 C-10.125625 12.450625 -10.06375 13.21375 -10 14 C-11.32 13.01 -12.64 12.02 -14 11 C-13.40503246 7.67258892 -12.29522827 5.82909592 -10.0625 3.3125 C-9.53785156 2.71050781 -9.01320313 2.10851562 -8.47265625 1.48828125 C-5.59734414 -1.41753815 -3.78899454 -1.06869077 0 0 Z " fill="#C3DE1D" transform="translate(100,83)"/>
<path d="M0 0 C0.5775 0.226875 1.155 0.45375 1.75 0.6875 C1.13125 0.77 0.5125 0.8525 -0.125 0.9375 C-2.92505419 1.92575442 -2.99113932 3.09109985 -4.25 5.6875 C-5.58333333 6.35416667 -6.91666667 7.02083333 -8.25 7.6875 C-8.9337045 9.01217746 -9.59964186 10.34613633 -10.25 11.6875 C-13.67857143 14.6875 -13.67857143 14.6875 -16.25 14.6875 C-14.80053895 11.34776243 -12.96827612 9.16445341 -10.375 6.625 C-9.69695312 5.95339844 -9.01890625 5.28179687 -8.3203125 4.58984375 C-2.88858884 -0.40119289 -2.88858884 -0.40119289 0 0 Z " fill="#C0DD1B" transform="translate(79.25,58.3125)"/>
<path d="M0 0 C1 1 1 1 1.1875 3.4375 C1 6 1 6 -1 8 C-5.55555556 7.44444444 -5.55555556 7.44444444 -7 6 C-7.04063832 4.33382885 -7.042721 2.66611905 -7 1 C-4.51588385 -0.24205807 -2.74800896 -0.14092354 0 0 Z " fill="#BBD921" transform="translate(49,60)"/>
<path d="M0 0 C2.97 0 5.94 0 9 0 C9.33 0.99 9.66 1.98 10 3 C9.0409375 3.1546875 9.0409375 3.1546875 8.0625 3.3125 C7.381875 3.539375 6.70125 3.76625 6 4 C5.67 4.99 5.34 5.98 5 7 C1.9375 8.1875 1.9375 8.1875 -1 9 C-0.67 6.03 -0.34 3.06 0 0 Z " fill="#2E3031" transform="translate(153,98)"/>
<path d="M0 0 C2.5625 0.1875 2.5625 0.1875 4.5625 2.1875 C4.1875 4.8125 4.1875 4.8125 3.5625 7.1875 C1.1875 7.8125 1.1875 7.8125 -1.4375 8.1875 C-3.4375 6.1875 -3.4375 6.1875 -3.625 3.625 C-3.37291261 0.34786389 -3.27713611 0.25208739 0 0 Z " fill="#B2CB32" transform="translate(146.4375,59.8125)"/>
<path d="M0 0 C2.5625 0.1875 2.5625 0.1875 4.5625 2.1875 C4.1875 4.8125 4.1875 4.8125 3.5625 7.1875 C-2.1875 7.3125 -2.1875 7.3125 -4.4375 6.1875 C-3.3735 0.2595 -3.3735 0.2595 0 0 Z " fill="#B0C832" transform="translate(95.4375,148.8125)"/>
<path d="M0 0 C2.66666667 0.66666667 5.33333333 1.33333333 8 2 C8 2.66 8 3.32 8 4 C7.01 4 6.02 4 5 4 C5 4.66 5 5.32 5 6 C5.66 6 6.32 6 7 6 C7 6.66 7 7.32 7 8 C4.36 7.67 1.72 7.34 -1 7 C-2 4 -2 4 -1.0625 1.8125 C-0.5365625 0.9153125 -0.5365625 0.9153125 0 0 Z " fill="#87898B" transform="translate(33,78)"/>
<path d="M0 0 C0.66 0 1.32 0 2 0 C5 5.625 5 5.625 5 9 C3.02 9 1.04 9 -1 9 C-2.06775224 7.03533587 -3.06553465 5.03144641 -4 3 C-3.67 2.34 -3.34 1.68 -3 1 C-2.34 1.33 -1.68 1.66 -1 2 C-0.67 1.34 -0.34 0.68 0 0 Z " fill="#979799" transform="translate(124,145)"/>
<path d="M0 0 C3.3 0.66 6.6 1.32 10 2 C10 4.31 10 6.62 10 9 C8.68 9.33 7.36 9.66 6 10 C6.33 7.69 6.66 5.38 7 3 C4.69 3 2.38 3 0 3 C0.66 5.31 1.32 7.62 2 10 C0.68 9.67 -0.64 9.34 -2 9 C-2.6875 6.75 -2.6875 6.75 -3 4 C-2.01 2.68 -1.02 1.36 0 0 Z " fill="#252A16" transform="translate(42,58)"/>
<path d="M0 0 C2.26625003 1.01590518 3.76933232 1.70342727 5.3125 3.6875 C7.13182943 5.40875764 7.13182943 5.40875764 10.6875 4.6875 C11.780625 4.460625 12.87375 4.23375 14 4 C13.67 4.804375 13.34 5.60875 13 6.4375 C11.93940959 8.69681125 11.93940959 8.69681125 12 10 C9.1875 10.3125 9.1875 10.3125 6 10 C4.3125 7.6875 4.3125 7.6875 3 5 C2.443125 4.443125 1.88625 3.88625 1.3125 3.3125 C0.879375 2.879375 0.44625 2.44625 0 2 C0 1.34 0 0.68 0 0 Z " fill="#576415" transform="translate(88,97)"/>
<path d="M0 0 C1.32 0.66 2.64 1.32 4 2 C4 2.66 4 3.32 4 4 C4.66 4 5.32 4 6 4 C6 4.66 6 5.32 6 6 C4.02 6 2.04 6 0 6 C0.33 7.98 0.66 9.96 1 12 C-1.03833424 10.7260411 -3.03852126 9.38938077 -5 8 C-5 7.34 -5 6.68 -5 6 C-4.34 6 -3.68 6 -3 6 C-3 5.01 -3 4.02 -3 3 C-2.01 2.67 -1.02 2.34 0 2 C0 1.34 0 0.68 0 0 Z " fill="#9D9FA1" transform="translate(140,132)"/>
<path d="M0 0 C3.5 0.25 3.5 0.25 5.5 2.25 C2.86 2.58 0.22 2.91 -2.5 3.25 C-2.58948558 7.72427924 -2.35743651 11.85563789 -1.5 16.25 C-4.16545104 13.81632731 -5.35217764 11.98605335 -5.66796875 8.27734375 C-5.68675199 6.26753694 -5.59560094 4.25761966 -5.5 2.25 C-3.5 0.25 -3.5 0.25 0 0 Z " fill="#475110" transform="translate(82.5,72.75)"/>
<path d="M0 0 C-1 3 -1 3 -4.125 4.6875 C-7.79357134 6.14581407 -11.05393993 6.24159551 -15 6 C-15 5.01 -15 4.02 -15 3 C-14.22914062 2.86722656 -13.45828125 2.73445313 -12.6640625 2.59765625 C-11.66117187 2.42105469 -10.65828125 2.24445313 -9.625 2.0625 C-8.62726563 1.88847656 -7.62953125 1.71445313 -6.6015625 1.53515625 C-4.17911891 1.03684578 -2.44449381 0 0 0 Z " fill="#616F16" transform="translate(94,106)"/>
<path d="M0 0 C1.32 0.33 2.64 0.66 4 1 C4.33 2.32 4.66 3.64 5 5 C4.01 5.33 3.02 5.66 2 6 C2.33 7.32 2.66 8.64 3 10 C2.34 10 1.68 10 1 10 C-0.625 7.25 -0.625 7.25 -2 4 C-1.1875 1.625 -1.1875 1.625 0 0 Z " fill="#858689" transform="translate(66,35)"/>
<path d="M0 0 C0.66 0.66 1.32 1.32 2 2 C1.71483504 4.66153963 0.81342268 6.3134499 -0.5625 8.625 C-2.49291331 13.15727474 -2.25909456 17.14437607 -2 22 C-2.99 21.67 -3.98 21.34 -5 21 C-4.68985608 18.91631462 -4.3767948 16.83306332 -4.0625 14.75 C-3.88847656 13.58984375 -3.71445313 12.4296875 -3.53515625 11.234375 C-3.1272264 8.76893039 -2.66098697 6.40575438 -2 4 C-1.34 4 -0.68 4 0 4 C0 2.68 0 1.36 0 0 Z " fill="#BAD41D" transform="translate(80,89)"/>
<path d="M0 0 C0.66 0 1.32 0 2 0 C2.25954277 4.15268426 2.12397048 7.08724135 0.5 10.9375 C-1.24393619 15.12130937 -1.24119246 18.49774073 -1 23 C-3.0625 21.25 -3.0625 21.25 -5 19 C-4.58935379 15.93298613 -3.28780696 13.38369164 -1.9375 10.625 C-0.24069776 6.91898788 0.42369759 4.1310515 0 0 Z " fill="#BCD424" transform="translate(116,75)"/>
<path d="M0 0 C0 1.65 0 3.3 0 5 C-0.33 4.34 -0.66 3.68 -1 3 C-1.66 3 -2.32 3 -3 3 C-3 3.99 -3 4.98 -3 6 C-3.99 5.67 -4.98 5.34 -6 5 C-6.33 5.66 -6.66 6.32 -7 7 C-7.66 7 -8.32 7 -9 7 C-9 5.35 -9 3.7 -9 2 C-5.62902617 0.50178941 -3.79557881 0 0 0 Z " fill="#87888B" transform="translate(160,72)"/>
<path d="M0 0 C0.66 0 1.32 0 2 0 C1.75 2.375 1.75 2.375 1 5 C-0.8125 6.375 -0.8125 6.375 -3 7 C-5.25 6.625 -5.25 6.625 -7 6 C-7.33 4.68 -7.66 3.36 -8 2 C-7.34 2 -6.68 2 -6 2 C-6 2.66 -6 3.32 -6 4 C-5.34 4 -4.68 4 -4 4 C-4 3.01 -4 2.02 -4 1 C-3.34 1 -2.68 1 -2 1 C-2 1.66 -2 2.32 -2 3 C-1.34 3 -0.68 3 0 3 C0 2.01 0 1.02 0 0 Z " fill="#848589" transform="translate(42,114)"/>
<path d="M0 0 C4.29 0 8.58 0 13 0 C12.67 0.99 12.34 1.98 12 3 C8.04 3 4.08 3 0 3 C0 2.01 0 1.02 0 0 Z " fill="#323619" transform="translate(90,131)"/>
<path d="M0 0 C0.66 0 1.32 0 2 0 C1.67 1.32 1.34 2.64 1 4 C1.99 4.33 2.98 4.66 4 5 C2.35 5.66 0.7 6.32 -1 7 C-1.99 6.01 -2.98 5.02 -4 4 C-4 4.99 -4 5.98 -4 7 C-3.34 7 -2.68 7 -2 7 C-2 7.66 -2 8.32 -2 9 C-2.99 8.67 -3.98 8.34 -5 8 C-5.8125 6.0625 -5.8125 6.0625 -6 4 C-5.34 3.34 -4.68 2.68 -4 2 C-2.68 2 -1.36 2 0 2 C0 1.34 0 0.68 0 0 Z " fill="#939597" transform="translate(44,120)"/>
<path d="M0 0 C1.32 0.66 2.64 1.32 4 2 C3.67 2.99 3.34 3.98 3 5 C2.01 4.67 1.02 4.34 0 4 C0 4.99 0 5.98 0 7 C-0.66 7 -1.32 7 -2 7 C-2 8.65 -2 10.3 -2 12 C-1.01 12.33 -0.02 12.66 1 13 C-0.32 13 -1.64 13 -3 13 C-3.4726477 4.80743982 -3.4726477 4.80743982 -1.5 1.4375 C-0.7575 0.7259375 -0.7575 0.7259375 0 0 Z " fill="#C2DF1C" transform="translate(83,95)"/>
<path d="M0 0 C2.31 0.66 4.62 1.32 7 2 C7.33 3.32 7.66 4.64 8 6 C7.67 5.34 7.34 4.68 7 4 C6.01 4 5.02 4 4 4 C4 4.99 4 5.98 4 7 C4.66 7.33 5.32 7.66 6 8 C3.33333333 7.33333333 0.66666667 6.66666667 -2 6 C-2 5.34 -2 4.68 -2 4 C-0.68 4 0.64 4 2 4 C2 3.34 2 2.68 2 2 C1.34 2 0.68 2 0 2 C0 1.34 0 0.68 0 0 Z " fill="#96989A" transform="translate(150,114)"/>
<path d="M0 0 C1.65 0.33 3.3 0.66 5 1 C4.34 3.97 3.68 6.94 3 10 C1.35 10 -0.3 10 -2 10 C-2 9.34 -2 8.68 -2 8 C-0.68 8 0.64 8 2 8 C2 7.34 2 6.68 2 6 C1.01 6 0.02 6 -1 6 C-1 5.34 -1 4.68 -1 4 C-0.01 3.67 0.98 3.34 2 3 C1.34 2.67 0.68 2.34 0 2 C0 1.34 0 0.68 0 0 Z " fill="#898B8C" transform="translate(74,147)"/>
<path d="M0 0 C2 2 2 2 2.23046875 3.91015625 C2.11111111 9.88888889 2.11111111 9.88888889 1 11 C-3.93107644 11.43831791 -4.80815181 11.14388614 -9 8 C-5.7 8 -2.4 8 1 8 C0.67 5.36 0.34 2.72 0 0 Z " fill="#C0D728" transform="translate(112,99)"/>
<path d="M0 0 C1.875 0.8125 1.875 0.8125 2.875 2.8125 C1.555 2.4825 0.235 2.1525 -1.125 1.8125 C-0.795 3.1325 -0.465 4.4525 -0.125 5.8125 C-1.115 5.8125 -2.105 5.8125 -3.125 5.8125 C-2.795 6.8025 -2.465 7.7925 -2.125 8.8125 C-3.445 8.1525 -4.765 7.4925 -6.125 6.8125 C-5.71816505 4.45285727 -5.22685661 2.95315912 -3.8125 1 C-2.125 -0.1875 -2.125 -0.1875 0 0 Z " fill="#86878B" transform="translate(142.125,47.1875)"/>
<path d="M0 0 C3.34373475 0.55728913 6.03312999 1.35173889 9 3 C9 4.32 9 5.64 9 7 C8.01 7.33 7.02 7.66 6 8 C6 6.68 6 5.36 6 4 C5.01 4.33 4.02 4.66 3 5 C3 4.01 3 3.02 3 2 C2.34 2 1.68 2 1 2 C1 2.66 1 3.32 1 4 C0.34 4 -0.32 4 -1 4 C-0.67 2.68 -0.34 1.36 0 0 Z " fill="#888A8C" transform="translate(146,122)"/>
<path d="M0 0 C0.33 1.32 0.66 2.64 1 4 C1.66 4 2.32 4 3 4 C3.33 3.34 3.66 2.68 4 2 C4 2.99 4 3.98 4 5 C4.680625 4.2575 4.680625 4.2575 5.375 3.5 C7 2 7 2 9 2 C8.67 3.65 8.34 5.3 8 7 C1.25 6.125 1.25 6.125 -1 5 C-0.67 3.35 -0.34 1.7 0 0 Z " fill="#8A8C8E" transform="translate(35,71)"/>
<path d="M0 0 C0.66 0 1.32 0 2 0 C2.33 0.66 2.66 1.32 3 2 C3.66 2 4.32 2 5 2 C4.67 3.32 4.34 4.64 4 6 C5.32 5.67 6.64 5.34 8 5 C7.01 6.485 7.01 6.485 6 8 C3.64035727 7.59316505 2.14065912 7.10185661 0.1875 5.6875 C-1 4 -1 4 -0.6875 1.8125 C-0.460625 1.214375 -0.23375 0.61625 0 0 Z " fill="#8A8C8E" transform="translate(51,46)"/>
<path d="M0 0 C0.66 0 1.32 0 2 0 C2.33 1.65 2.66 3.3 3 5 C0.03 5.66 -2.94 6.32 -6 7 C-5.67 5.68 -5.34 4.36 -5 3 C-5.33 2.34 -5.66 1.68 -6 1 C-4.7934375 1.0309375 -4.7934375 1.0309375 -3.5625 1.0625 C-1.06645115 1.29633621 -1.06645115 1.29633621 0 0 Z " fill="#949599" transform="translate(159,81)"/>
<path d="M0 0 C1.65 0.33 3.3 0.66 5 1 C4.67 2.32 4.34 3.64 4 5 C3.67 4.01 3.34 3.02 3 2 C2.34 2 1.68 2 1 2 C1 2.99 1 3.98 1 5 C1.66 5.33 2.32 5.66 3 6 C2.01 6.99 1.02 7.98 0 9 C-0.33 8.01 -0.66 7.02 -1 6 C-1.99 6.495 -1.99 6.495 -3 7 C-2.38722388 4.03824877 -1.74627478 2.61941217 0 0 Z " fill="#9A9B9F" transform="translate(133,41)"/>
<path d="M0 0 C1.32 0 2.64 0 4 0 C5.85776765 3.13498292 6.20140476 5.37471432 6 9 C4.68 8.67 3.36 8.34 2 8 C2.66 8 3.32 8 4 8 C4 7.34 4 6.68 4 6 C3.01 6 2.02 6 1 6 C1 5.34 1 4.68 1 4 C1.66 4 2.32 4 3 4 C3 3.34 3 2.68 3 2 C1.68 1.67 0.36 1.34 -1 1 C-0.67 0.67 -0.34 0.34 0 0 Z " fill="#909294" transform="translate(114,148)"/>
<path d="M0 0 C2.97 0 5.94 0 9 0 C9 1.65 9 3.3 9 5 C7.35 5.33 5.7 5.66 4 6 C4 5.34 4 4.68 4 4 C4.99 4 5.98 4 7 4 C7 3.34 7 2.68 7 2 C4.69 2 2.38 2 0 2 C0 1.34 0 0.68 0 0 Z " fill="#97999A" transform="translate(154,90)"/>
<path d="M0 0 C0.99 0.33 1.98 0.66 3 1 C3.33 2.65 3.66 4.3 4 6 C4.99 6 5.98 6 7 6 C7 6.99 7 7.98 7 9 C4.625 8.8125 4.625 8.8125 2 8 C0.40339294 5.11090151 0 3.30941204 0 0 Z " fill="#747679" transform="translate(72,33)"/>
<path d="M0 0 C0.66 0.33 1.32 0.66 2 1 C1.67 1.99 1.34 2.98 1 4 C-1.14453125 4.984375 -1.14453125 4.984375 -3.8125 5.75 C-4.68519531 6.01296875 -5.55789062 6.2759375 -6.45703125 6.546875 C-9.05434119 7.00968292 -10.53376528 6.85082224 -13 6 C-11.96939453 5.60167969 -11.96939453 5.60167969 -10.91796875 5.1953125 C-10.01691406 4.84210938 -9.11585937 4.48890625 -8.1875 4.125 C-7.29417969 3.77695313 -6.40085937 3.42890625 -5.48046875 3.0703125 C-2.82288409 2.01167845 -2.82288409 2.01167845 0 0 Z " fill="#475014" transform="translate(117,124)"/>
<path d="M0 0 C0.90492187 0.38285156 1.80984375 0.76570313 2.7421875 1.16015625 C4.10730469 1.73056641 4.10730469 1.73056641 5.5 2.3125 C6.19867188 2.61285156 6.89734375 2.91320312 7.6171875 3.22265625 C6.6271875 3.55265625 5.6371875 3.88265625 4.6171875 4.22265625 C4.6171875 4.88265625 4.6171875 5.54265625 4.6171875 6.22265625 C5.6071875 6.55265625 6.5971875 6.88265625 7.6171875 7.22265625 C6.2971875 7.55265625 4.9771875 7.88265625 3.6171875 8.22265625 C3.2871875 7.56265625 2.9571875 6.90265625 2.6171875 6.22265625 C2.9471875 5.56265625 3.2771875 4.90265625 3.6171875 4.22265625 C2.6684375 3.93390625 1.7196875 3.64515625 0.7421875 3.34765625 C-2.3828125 2.22265625 -2.3828125 2.22265625 -4.3828125 0.22265625 C-2.3828125 -0.77734375 -2.3828125 -0.77734375 0 0 Z " fill="#5C6A18" transform="translate(90.3828125,74.77734375)"/>
<path d="M0 0 C0.33 1.32 0.66 2.64 1 4 C2.32 4.33 3.64 4.66 5 5 C5 5.66 5 6.32 5 7 C4.01 7 3.02 7 2 7 C2 7.99 2 8.98 2 10 C1.34 10 0.68 10 0 10 C-0.33 8.35 -0.66 6.7 -1 5 C-1.99 4.67 -2.98 4.34 -4 4 C-4 3.34 -4 2.68 -4 2 C-2.68 2.33 -1.36 2.66 0 3 C0 2.01 0 1.02 0 0 Z " fill="#95979A" transform="translate(60,40)"/>
<path d="M0 0 C1.65 0 3.3 0 5 0 C4.01 0.33 3.02 0.66 2 1 C2 1.66 2 2.32 2 3 C2.66 3 3.32 3 4 3 C4 3.66 4 4.32 4 5 C3.34 5 2.68 5 2 5 C2 5.66 2 6.32 2 7 C2.66 7 3.32 7 4 7 C4 7.66 4 8.32 4 9 C2.68 9 1.36 9 0 9 C0 6.03 0 3.06 0 0 Z " fill="#999B9D" transform="translate(99,29)"/>
<path d="M0 0 C0.99 0 1.98 0 3 0 C3 0.66 3 1.32 3 2 C2.01 2.495 2.01 2.495 1 3 C1.66 3.33 2.32 3.66 3 4 C3 4.66 3 5.32 3 6 C0.36 6 -2.28 6 -5 6 C-5 5.34 -5 4.68 -5 4 C-3.35 3.34 -1.7 2.68 0 2 C0 1.34 0 0.68 0 0 Z " fill="#9D9FA1" transform="translate(37,101)"/>
<path d="M0 0 C3.3 0.33 6.6 0.66 10 1 C10 1.33 10 1.66 10 2 C7.03 2 4.06 2 1 2 C1 2.66 1 3.32 1 4 C3.31 4 5.62 4 8 4 C8 4.66 8 5.32 8 6 C5.39417629 6.93065133 4.35801776 7.14917407 1.75 6.0625 C1.1725 5.711875 0.595 5.36125 0 5 C0 3.35 0 1.7 0 0 Z " fill="#414345" transform="translate(153,88)"/>
<path d="M0 0 C0.99 0.33 1.98 0.66 3 1 C3 2.32 3 3.64 3 5 C3.66 5.33 4.32 5.66 5 6 C4.01 6.33 3.02 6.66 2 7 C2 10.63 2 14.26 2 18 C1.67 18 1.34 18 1 18 C0.67 12.06 0.34 6.12 0 0 Z " fill="#3A430E" transform="translate(133,82)"/>
<path d="M0 0 C1.67542976 0.28604898 3.34385343 0.61781233 5 1 C5 2.32 5 3.64 5 5 C3.35 5 1.7 5 0 5 C-0.5625 3.0625 -0.5625 3.0625 -1 1 C-0.67 0.67 -0.34 0.34 0 0 Z " fill="#272729" transform="translate(130,142)"/>
<path d="M0 0 C0.86625 0.3403125 0.86625 0.3403125 1.75 0.6875 C1.42 1.3475 1.09 2.0075 0.75 2.6875 C1.41 2.6875 2.07 2.6875 2.75 2.6875 C2.75 3.6775 2.75 4.6675 2.75 5.6875 C-0.22 4.6975 -3.19 3.7075 -6.25 2.6875 C-2.80384615 -0.38942308 -2.80384615 -0.38942308 0 0 Z " fill="#383E15" transform="translate(111.25,53.3125)"/>
<path d="M0 0 C1.65 0.33 3.3 0.66 5 1 C4.67 2.32 4.34 3.64 4 5 C2.35 4.67 0.7 4.34 -1 4 C-0.67 2.68 -0.34 1.36 0 0 Z " fill="#262729" transform="translate(46,130)"/>
<path d="M0 0 C0.33 0.99 0.66 1.98 1 3 C2.32 2.67 3.64 2.34 5 2 C4.54625 2.4125 4.0925 2.825 3.625 3.25 C1.94049626 5.06408095 1.00734029 6.75285627 0 9 C0 8.34 0 7.68 0 7 C-1.32 7.33 -2.64 7.66 -4 8 C-3.67 7.01 -3.34 6.02 -3 5 C-2.34 4.67 -1.68 4.34 -1 4 C-0.34786708 1.97536745 -0.34786708 1.97536745 0 0 Z " fill="#9C9DA1" transform="translate(67,144)"/>
<path d="M0 0 C0.66 1.32 1.32 2.64 2 4 C1.34 4 0.68 4 0 4 C0 4.66 0 5.32 0 6 C-1.98 6.66 -3.96 7.32 -6 8 C-6.66 7.01 -7.32 6.02 -8 5 C-6.865625 4.54625 -5.73125 4.0925 -4.5625 3.625 C-0.95278308 2.42904194 -0.95278308 2.42904194 0 0 Z " fill="#323438" transform="translate(44,116)"/>
<path d="M0 0 C2.125 0.375 2.125 0.375 4 1 C3.38125 1.0825 2.7625 1.165 2.125 1.25 C1.42375 1.4975 0.7225 1.745 0 2 C-0.309375 2.66 -0.61875 3.32 -0.9375 4 C-1.288125 4.66 -1.63875 5.32 -2 6 C-4.625 6.75 -4.625 6.75 -7 7 C-4.66666667 4.66666667 -2.33333333 2.33333333 0 0 Z " fill="#B1CB23" transform="translate(77,58)"/>
<path d="M0 0 C1.32 0.66 2.64 1.32 4 2 C3.67 3.32 3.34 4.64 3 6 C1.68 6 0.36 6 -1 6 C-1.042721 4.33388095 -1.04063832 2.66617115 -1 1 C-0.67 0.67 -0.34 0.34 0 0 Z " fill="#25272B" transform="translate(83,31)"/>
<path d="M0 0 C0.33 0 0.66 0 1 0 C1.125 7.75 1.125 7.75 0 10 C-0.66 10 -1.32 10 -2 10 C-2 10.99 -2 11.98 -2 13 C-2.66 13 -3.32 13 -4 13 C-3.79503906 12.39671875 -3.59007812 11.7934375 -3.37890625 11.171875 C-2.97478516 9.97304687 -2.97478516 9.97304687 -2.5625 8.75 C-2.29566406 7.96109375 -2.02882812 7.1721875 -1.75390625 6.359375 C-1.08045292 4.25178012 -0.50849405 2.15246027 0 0 Z " fill="#444D13" transform="translate(133,100)"/>
<path d="M0 0 C2.475 0.495 2.475 0.495 5 1 C5 2.32 5 3.64 5 5 C3.35 5 1.7 5 0 5 C0 3.35 0 1.7 0 0 Z " fill="#27292A" transform="translate(154,107)"/>
<path d="M0 0 C2.97 0 5.94 0 9 0 C9 0.66 9 1.32 9 2 C6.69 2 4.38 2 2 2 C2 2.99 2 3.98 2 5 C1.34 5 0.68 5 0 5 C0 3.35 0 1.7 0 0 Z " fill="#808183" transform="translate(153,98)"/>
<path d="M0 0 C2.475 0.495 2.475 0.495 5 1 C5 2.32 5 3.64 5 5 C3.35 5 1.7 5 0 5 C0 3.35 0 1.7 0 0 Z " fill="#222425" transform="translate(33,89)"/>
<path d="M0 0 C0.99 0.33 1.98 0.66 3 1 C0.69 3.64 -1.62 6.28 -4 9 C-4.33 8.01 -4.66 7.02 -5 6 C-2.66666667 1.33333333 -2.66666667 1.33333333 0 0 Z " fill="#313810" transform="translate(67,64)"/>
<path d="M0 0 C2.475 0.495 2.475 0.495 5 1 C5 2.32 5 3.64 5 5 C3.35 5 1.7 5 0 5 C0 3.35 0 1.7 0 0 Z " fill="#262829" transform="translate(124,38)"/>
<path d="M0 0 C0.99 0.33 1.98 0.66 3 1 C3 1.66 3 2.32 3 3 C3.598125 2.79375 4.19625 2.5875 4.8125 2.375 C7 2 7 2 10 4 C8.02253397 4.73080266 6.01927511 5.39421747 4 6 C3.34 5.67 2.68 5.34 2 5 C2 4.34 2 3.68 2 3 C1.34 3 0.68 3 0 3 C0 2.01 0 1.02 0 0 Z " fill="#515354" transform="translate(40,124)"/>
<path d="M0 0 C0.66 0 1.32 0 2 0 C2.75 2.25 2.75 2.25 3 5 C1.1875 7.3125 1.1875 7.3125 -1 9 C-1.66 9 -2.32 9 -3 9 C-2.690625 8.443125 -2.38125 7.88625 -2.0625 7.3125 C-0.94238179 4.87459567 -0.43962636 2.63775814 0 0 Z " fill="#8B8C90" transform="translate(55,134)"/>
<path d="M0 0 C1 2 1 2 0.9375 3.875 C-0.48885027 7.10806062 -3.03834436 8.23560941 -6 10 C-6.66 9.67 -7.32 9.34 -8 9 C-5.36 6.03 -2.72 3.06 0 0 Z " fill="#4F5916" transform="translate(127,114)"/>
<path d="M0 0 C2.8125 2 2.8125 2 5 4 C3.58297487 3.85769192 2.1663904 3.71099254 0.75 3.5625 C-0.43335937 3.44068359 -0.43335937 3.44068359 -1.640625 3.31640625 C-3.82364639 3.02365007 -5.8773182 2.57935581 -8 2 C-4.7243083 -0.18379446 -3.79929471 -0.54275639 0 0 Z " fill="#BBD029" transform="translate(99,107)"/>
<path d="M0 0 C1.32 0.33 2.64 0.66 4 1 C4 2.65 4 4.3 4 6 C4.66 6 5.32 6 6 6 C5.67 7.32 5.34 8.64 5 10 C4.16121545 8.71186658 3.32913217 7.41936744 2.5 6.125 C2.0359375 5.40570313 1.571875 4.68640625 1.09375 3.9453125 C0 2 0 2 0 0 Z " fill="#B3CE20" transform="translate(59,105)"/>
<path d="M0 0 C0.33 0 0.66 0 1 0 C2.19876651 5.44893869 1.91360308 8.22169095 -1 13 C-1.66 12.67 -2.32 12.34 -3 12 C-2.690625 11.319375 -2.38125 10.63875 -2.0625 9.9375 C-0.86629351 6.63034088 -0.40994603 3.48454122 0 0 Z " fill="#5D6B11" transform="translate(114,77)"/>
<path d="M0 0 C4.38889325 0.66498383 7.9811485 2.18757677 12 4 C12 4.33 12 4.66 12 5 C7.92086213 5.23994929 4.75907641 4.62323754 1 3 C0.67 2.01 0.34 1.02 0 0 Z " fill="#BFDA23" transform="translate(105,56)"/>
<path d="M0 0 C0.66 0 1.32 0 2 0 C2.33 0.66 2.66 1.32 3 2 C3.66 1.34 4.32 0.68 5 0 C5.33 0.66 5.66 1.32 6 2 C6.99 2.66 7.98 3.32 9 4 C6.36 4.33 3.72 4.66 1 5 C0.67 3.35 0.34 1.7 0 0 Z " fill="#4D4E52" transform="translate(134,43)"/>
<path d="M0 0 C1.32 0.66 2.64 1.32 4 2 C4 2.66 4 3.32 4 4 C2.37373596 5.38232443 0.7074998 6.71937515 -1 8 C-1.66 7.67 -2.32 7.34 -3 7 C-2.34 6.34 -1.68 5.68 -1 5 C-0.35232207 2.42938689 -0.35232207 2.42938689 0 0 Z " fill="#2E3031" transform="translate(137,142)"/>
<path d="M0 0 C1.53202706 0.25195908 3.05257128 0.57596777 4.5625 0.9375 C5.38878906 1.13214844 6.21507812 1.32679687 7.06640625 1.52734375 C8.02353516 1.76130859 8.02353516 1.76130859 9 2 C8.34 3.32 7.68 4.64 7 6 C7 5.34 7 4.68 7 4 C6.236875 3.87625 5.47375 3.7525 4.6875 3.625 C2 3 2 3 -1 1 C-0.67 0.67 -0.34 0.34 0 0 Z " fill="#2B2C2F" transform="translate(34,76)"/>
<path d="M0 0 C2.875 -0.125 2.875 -0.125 6 0 C8 2 8 2 8.125 5.125 C8.08375 6.07375 8.0425 7.0225 8 8 C6.68 8.33 5.36 8.66 4 9 C4.33 6.69 4.66 4.38 5 2 C3.35 1.67 1.7 1.34 0 1 C0 0.67 0 0.34 0 0 Z " fill="#424C13" transform="translate(44,59)"/>
<path d="M0 0 C0.66 1.32 1.32 2.64 2 4 C1.34 4.66 0.68 5.32 0 6 C0 7.32 0 8.64 0 10 C-0.66 10 -1.32 10 -2 10 C-2.33 9.34 -2.66 8.68 -3 8 C-5.01669827 6.86649466 -5.01669827 6.86649466 -7 6 C-6.21625 5.938125 -5.4325 5.87625 -4.625 5.8125 C-3.75875 5.544375 -2.8925 5.27625 -2 5 C-0.62533375 2.52363988 -0.62533375 2.52363988 0 0 Z " fill="#3A3B3E" transform="translate(131,39)"/>
<path d="M0 0 C1.32 0 2.64 0 4 0 C4 1.65 4 3.3 4 5 C2.68 5 1.36 5 0 5 C0 3.35 0 1.7 0 0 Z " fill="#D1F50F" transform="translate(94,150)"/>
<path d="M0 0 C1.423125 0.2784375 1.423125 0.2784375 2.875 0.5625 C5.89868793 1.28686632 5.89868793 1.28686632 8 0 C7.67 1.32 7.34 2.64 7 4 C5.02 4 3.04 4 1 4 C0.67 2.68 0.34 1.36 0 0 Z " fill="#323815" transform="translate(143,66)"/>
<path d="M0 0 C1.32 0 2.64 0 4 0 C4 1.65 4 3.3 4 5 C2.68 5 1.36 5 0 5 C0 3.35 0 1.7 0 0 Z " fill="#D1F70D" transform="translate(145,61)"/>
<path d="M0 0 C1.4540625 0.0309375 1.4540625 0.0309375 2.9375 0.0625 C2.9375 0.7225 2.9375 1.3825 2.9375 2.0625 C1.2875 2.3925 -0.3625 2.7225 -2.0625 3.0625 C-2.3925 4.7125 -2.7225 6.3625 -3.0625 8.0625 C-3.3925 8.0625 -3.7225 8.0625 -4.0625 8.0625 C-4.10491723 5.72955225 -4.10342937 3.39547433 -4.0625 1.0625 C-3.0625 0.0625 -3.0625 0.0625 0 0 Z " fill="#323916" transform="translate(146.0625,57.9375)"/>
<path d="M0 0 C0.99 0 1.98 0 3 0 C2.625 2.4375 2.625 2.4375 2 5 C1.01 5.495 1.01 5.495 0 6 C-0.33 6.99 -0.66 7.98 -1 9 C-1.66 8.67 -2.32 8.34 -3 8 C-1.25 3.125 -1.25 3.125 1 2 C0.67 1.34 0.34 0.68 0 0 Z " fill="#434549" transform="translate(70,145)"/>
<path d="M0 0 C0.66 0 1.32 0 2 0 C2 1.98 2 3.96 2 6 C0.35 5.67 -1.3 5.34 -3 5 C-3 4.01 -3 3.02 -3 2 C-2.01 1.67 -1.02 1.34 0 1 C0 0.67 0 0.34 0 0 Z " fill="#515254" transform="translate(157,116)"/>
<path d="M0 0 C3.465 1.485 3.465 1.485 7 3 C7 3.66 7 4.32 7 5 C3.31245243 4.50168276 1.39509338 3.89932357 -1 1 C-0.67 0.67 -0.34 0.34 0 0 Z " fill="#5D6914" transform="translate(100,106)"/>
<path d="M0 0 C0.33 0 0.66 0 1 0 C1 1.98 1 3.96 1 6 C-5.28571429 8.42857143 -5.28571429 8.42857143 -9 7 C-5.91190305 5.23537317 -4.76687864 5 -1 5 C-0.67 3.35 -0.34 1.7 0 0 Z " fill="#2A2C2E" transform="translate(163,90)"/>
<path d="M0 0 C0.99 0 1.98 0 3 0 C3 0.99 3 1.98 3 3 C3.66 3 4.32 3 5 3 C5.33 2.34 5.66 1.68 6 1 C6 1.99 6 2.98 6 4 C4.02 4 2.04 4 0 4 C-0.33 3.34 -0.66 2.68 -1 2 C-0.67 1.34 -0.34 0.68 0 0 Z " fill="#69696B" transform="translate(123,150)"/>
<path d="M0 0 C3.37462715 0.54723683 5.08235 1.0549 8 3 C8 3.66 8 4.32 8 5 C4.62496331 3.8141763 2.35277269 2.72426311 0 0 Z " fill="#B8D421" transform="translate(71,122)"/>
<path d="M0 0 C0.99 0.33 1.98 0.66 3 1 C1.25 4.875 1.25 4.875 -1 6 C-1.99 5.67 -2.98 5.34 -4 5 C-4 4.34 -4 3.68 -4 3 C-3.01 3 -2.02 3 -1 3 C-0.67 2.01 -0.34 1.02 0 0 Z " fill="#3B430C" transform="translate(99,101)"/>
<path d="M0 0 C0.66 0.66 1.32 1.32 2 2 C1.68134222 5.29279709 0.45484649 6.86535088 -2 9 C-2 7.35 -2 5.7 -2 4 C-1.34 4 -0.68 4 0 4 C0 2.68 0 1.36 0 0 Z " fill="#C6DE25" transform="translate(80,89)"/>
<path d="M0 0 C1 2 1 2 0.25 4.9375 C-0.92931463 7.82682085 -1.78177928 8.95850565 -4 11 C-3.5247412 9.35303396 -3.04468109 7.70745272 -2.5625 6.0625 C-2.29566406 5.14597656 -2.02882812 4.22945313 -1.75390625 3.28515625 C-1 1 -1 1 0 0 Z " fill="#9AB225" transform="translate(62,73)"/>
<path d="M0 0 C0.66 0 1.32 0 2 0 C1.25 5.75 1.25 5.75 -1 8 C-1.625 5.125 -1.625 5.125 -2 2 C-1.34 1.34 -0.68 0.68 0 0 Z " fill="#A2A4A5" transform="translate(120,33)"/>
<path d="M0 0 C0.66 0 1.32 0 2 0 C2 1.32 2 2.64 2 4 C2.66 4.33 3.32 4.66 4 5 C3.34 5 2.68 5 2 5 C2 5.99 2 6.98 2 8 C1.34 8 0.68 8 0 8 C0 5.36 0 2.72 0 0 Z " fill="#9D9F9F" transform="translate(90,29)"/>
<path d="M0 0 C1.4540625 0.0309375 1.4540625 0.0309375 2.9375 0.0625 C2.9375 1.0525 2.9375 2.0425 2.9375 3.0625 C-0.0325 2.5675 -0.0325 2.5675 -3.0625 2.0625 C-3.0625 3.7125 -3.0625 5.3625 -3.0625 7.0625 C-3.3925 7.0625 -3.7225 7.0625 -4.0625 7.0625 C-4.10504356 5.06295254 -4.10330783 3.06208364 -4.0625 1.0625 C-3.0625 0.0625 -3.0625 0.0625 0 0 Z " fill="#989C9F" transform="translate(84.0625,29.9375)"/>
<path d="M0 0 C0.25 2.3125 0.25 2.3125 0 5 C-2 6.8125 -2 6.8125 -4 8 C-4.75 6.25 -4.75 6.25 -5 4 C-1.66666667 0 -1.66666667 0 0 0 Z " fill="#242529" transform="translate(66,144)"/>
<path d="M0 0 C4.875 4.625 4.875 4.625 6 8 C4 8 4 8 1.875 6.25 C0 4 0 4 0 0 Z " fill="#434D10" transform="translate(61,111)"/>
<path d="M0 0 C0.33 0.66 0.66 1.32 1 2 C0.67 2.66 0.34 3.32 0 4 C-1.4800841 3.88637738 -2.95910074 3.75877092 -4.4375 3.625 C-5.26121094 3.55539063 -6.08492188 3.48578125 -6.93359375 3.4140625 C-7.61550781 3.27742188 -8.29742187 3.14078125 -9 3 C-9.33 2.34 -9.66 1.68 -10 1 C-7.98177083 1.03255208 -5.96354167 1.06510417 -3.9453125 1.09765625 C-1.91814596 1.12649242 -1.91814596 1.12649242 0 0 Z " fill="#C0D922" transform="translate(115,110)"/>
<path d="M0 0 C2.64 0.33 5.28 0.66 8 1 C7.01 2.485 7.01 2.485 6 4 C4.125 3.6875 4.125 3.6875 2 3 C1.34 2.01 0.68 1.02 0 0 Z " fill="#C3DC29" transform="translate(92,99)"/>
<path d="M0 0 C2.31 0.66 4.62 1.32 7 2 C6.01 3.485 6.01 3.485 5 5 C4.01 5 3.02 5 2 5 C1.34 3.35 0.68 1.7 0 0 Z " fill="#C9E02C" transform="translate(80,84)"/>
<path d="M0 0 C1.65 0 3.3 0 5 0 C5.33 0.66 5.66 1.32 6 2 C5.01 3.485 5.01 3.485 4 5 C3.34 5 2.68 5 2 5 C2 3.68 2 2.36 2 1 C1.34 0.67 0.68 0.34 0 0 Z " fill="#5D5F5F" transform="translate(90,28)"/>
</svg>
